<svg id="Layer_1" data-name="Layer 1" xmlns="http://www.w3.org/2000/svg" xmlns:xlink="http://www.w3.org/1999/xlink" viewBox="0 0 30 26.31843">
	<defs>
		<style>.cls-1{fill:none;}.cls-2,.cls-3{fill-rule:evenodd;}.cls-2{fill:url(#linear-gradient);}.cls-3{fill:url(#linear-gradient-2);}</style>
		<linearGradient id="linear-gradient" x1="10.44887" y1="13.15921" x2="17.72977" y2="13.15921" gradientUnits="userSpaceOnUse">
			<stop offset="0" stop-color="#0045fb" />
			<stop offset="1" stop-color="#0f9" />
		</linearGradient>
		<linearGradient id="linear-gradient-2" x1="3.17046" y1="13.15921" x2="26.82959" y2="13.15921" xlink:href="#linear-gradient" />
	</defs>
	<rect class="cls-1" x="0.43765" y="-1.40314" width="29.1247" height="29.1247" />
	<path class="cls-2" d="M10.77614,12.46022a.9101.9101,0,0,0,0,1.398L16.237,18.40894a.91.91,0,0,0,1.49278-.699V8.60848a.91.91,0,0,0-1.49278-.699Zm2.00452.699,3.12908,2.60757V10.55164Z" />
	<path class="cls-3" d="M22.07929,20.23837a10.0031,10.0031,0,1,1,1.95659-2.76287.91.91,0,1,0,1.64265.78387,11.83659,11.83659,0,1,0-2.31185,3.26639.91032.91032,0,1,0-1.28739-1.28739Z" />
</svg>