<svg id="Layer_1" data-name="Layer 1" xmlns="http://www.w3.org/2000/svg" viewBox="0 0 720.63799 1099.63799"><defs><style>.cls-1{opacity:0.29;}.cls-2{fill:#1a1a1a;}.cls-3,.cls-4{fill:none;stroke:#fff;stroke-linecap:round;stroke-width:7px;}.cls-3{stroke-linejoin:round;}.cls-4{stroke-miterlimit:10;}</style></defs><g class="cls-1"><path class="cls-2" d="M.63736,1099.00064V.63784H720.00064v1098.3628ZM106.9899,156.00015a33.02651,33.02651,0,0,0-32.98926,32.98926V904.6481a33.02651,33.02651,0,0,0,32.98926,32.98926H617.6481a33.02651,33.02651,0,0,0,32.98926-32.98926V188.98941a33.02651,33.02651,0,0,0-32.98926-32.98926Z"/><path d="M719.6813.95657V1098.68142H.95669V.95657H719.6813m-612.69189,937H617.64859a33.34584,33.34584,0,0,0,33.3081-33.30817V188.98957a33.34583,33.34583,0,0,0-33.3081-33.30815H106.98941A33.34584,33.34584,0,0,0,73.6813,188.98957V904.6484a33.34585,33.34585,0,0,0,33.30811,33.30817M720.319.319H.319v1099h720V.319Zm-613.32959,937A32.67046,32.67046,0,0,1,74.319,904.6484V188.98957A32.67045,32.67045,0,0,1,106.98941,156.319H617.64859A32.67046,32.67046,0,0,1,650.319,188.98957V904.6484a32.67046,32.67046,0,0,1-32.67041,32.6706Z"/></g><path class="cls-3" d="M70.819,226.819V189.23921a36.89893,36.89893,0,0,1,36.89893-36.89894h48.3883"/><path class="cls-3" d="M654.10623,226.819V189.23921a36.89894,36.89894,0,0,0-36.89893-36.89894H568.819"/><path class="cls-4" d="M654.10623,866.34027v37.57979A36.89894,36.89894,0,0,1,617.2073,940.819H568.819"/><path class="cls-4" d="M70.819,866.34027v37.57979A36.89893,36.89893,0,0,0,107.71793,940.819h48.3883"/></svg>