<svg width="41" height="41" viewBox="0 0 41 41" fill="none" xmlns="http://www.w3.org/2000/svg">
	<path d="M35.875 16.2292C36.1015 16.2292 36.3188 16.1392 36.479 15.979C36.6392 15.8188 36.7291 15.6015 36.7291 15.375C36.7291 15.1485 36.6392 14.9312 36.479 14.771C36.3188 14.6108 36.1015 14.5208 35.875 14.5208H34.1666V11.1042H35.875C36.1015 11.1042 36.3188 11.0142 36.479 10.854C36.6392 10.6938 36.7291 10.4765 36.7291 10.25C36.7291 10.0235 36.6392 9.80621 36.479 9.64602C36.3188 9.48584 36.1015 9.39584 35.875 9.39584H34.1666V7.68751C34.1667 7.57532 34.1446 7.46423 34.1017 7.36057C34.0588 7.25691 33.9959 7.16273 33.9166 7.0834C33.8373 7.00407 33.7431 6.94115 33.6394 6.89825C33.5358 6.85534 33.4247 6.83329 33.3125 6.83334H31.6041V5.12501C31.6041 4.89847 31.5142 4.68121 31.354 4.52102C31.1938 4.36084 30.9765 4.27084 30.75 4.27084C30.5234 4.27084 30.3062 4.36084 30.146 4.52102C29.9858 4.68121 29.8958 4.89847 29.8958 5.12501V6.83334H26.4791V5.12501C26.4791 4.89847 26.3892 4.68121 26.229 4.52102C26.0688 4.36084 25.8515 4.27084 25.625 4.27084C25.3984 4.27084 25.1812 4.36084 25.021 4.52102C24.8608 4.68121 24.7708 4.89847 24.7708 5.12501V6.83334H21.3541V5.12501C21.3541 4.89847 21.2642 4.68121 21.104 4.52102C20.9438 4.36084 20.7265 4.27084 20.5 4.27084C20.2734 4.27084 20.0562 4.36084 19.896 4.52102C19.7358 4.68121 19.6458 4.89847 19.6458 5.12501V6.83334H16.2291V5.12501C16.2291 4.89847 16.1392 4.68121 15.979 4.52102C15.8188 4.36084 15.6015 4.27084 15.375 4.27084C15.1484 4.27084 14.9312 4.36084 14.771 4.52102C14.6108 4.68121 14.5208 4.89847 14.5208 5.12501V6.83334H11.1041V5.12501C11.1041 4.89847 11.0142 4.68121 10.854 4.52102C10.6938 4.36084 10.4765 4.27084 10.25 4.27084C10.0234 4.27084 9.80618 4.36084 9.64599 4.52102C9.48581 4.68121 9.39581 4.89847 9.39581 5.12501V6.83334H7.68748C7.57529 6.83329 7.4642 6.85534 7.36054 6.89825C7.25688 6.94115 7.1627 7.00407 7.08337 7.0834C7.00404 7.16273 6.94112 7.25691 6.89822 7.36057C6.85531 7.46423 6.83326 7.57532 6.83331 7.68751V9.39584H5.12498C4.89844 9.39584 4.68118 9.48584 4.52099 9.64602C4.36081 9.80621 4.27081 10.0235 4.27081 10.25C4.27081 10.4765 4.36081 10.6938 4.52099 10.854C4.68118 11.0142 4.89844 11.1042 5.12498 11.1042H6.83331V14.5208H5.12498C4.89844 14.5208 4.68118 14.6108 4.52099 14.771C4.36081 14.9312 4.27081 15.1485 4.27081 15.375C4.27081 15.6015 4.36081 15.8188 4.52099 15.979C4.68118 16.1392 4.89844 16.2292 5.12498 16.2292H6.83331V19.6458H5.12498C4.89844 19.6458 4.68118 19.7358 4.52099 19.896C4.36081 20.0562 4.27081 20.2735 4.27081 20.5C4.27081 20.7265 4.36081 20.9438 4.52099 21.104C4.68118 21.2642 4.89844 21.3542 5.12498 21.3542H6.83331V24.7708H5.12498C4.89844 24.7708 4.68118 24.8608 4.52099 25.021C4.36081 25.1812 4.27081 25.3985 4.27081 25.625C4.27081 25.8515 4.36081 26.0688 4.52099 26.229C4.68118 26.3892 4.89844 26.4792 5.12498 26.4792H6.83331V29.8958H5.12498C4.89844 29.8958 4.68118 29.9858 4.52099 30.146C4.36081 30.3062 4.27081 30.5235 4.27081 30.75C4.27081 30.9765 4.36081 31.1938 4.52099 31.354C4.68118 31.5142 4.89844 31.6042 5.12498 31.6042H6.83331V33.3125C6.83326 33.4247 6.85531 33.5358 6.89822 33.6395C6.94112 33.7431 7.00404 33.8373 7.08337 33.9166C7.1627 33.9959 7.25688 34.0589 7.36054 34.1018C7.4642 34.1447 7.57529 34.1667 7.68748 34.1667H9.39581V35.875C9.39581 36.1015 9.48581 36.3188 9.64599 36.479C9.80618 36.6392 10.0234 36.7292 10.25 36.7292C10.4765 36.7292 10.6938 36.6392 10.854 36.479C11.0142 36.3188 11.1041 36.1015 11.1041 35.875V34.1667H14.5208V35.875C14.5208 36.1015 14.6108 36.3188 14.771 36.479C14.9312 36.6392 15.1484 36.7292 15.375 36.7292C15.6015 36.7292 15.8188 36.6392 15.979 36.479C16.1392 36.3188 16.2291 36.1015 16.2291 35.875V34.1667H19.6458V35.875C19.6458 36.1015 19.7358 36.3188 19.896 36.479C20.0562 36.6392 20.2734 36.7292 20.5 36.7292C20.7265 36.7292 20.9438 36.6392 21.104 36.479C21.2642 36.3188 21.3541 36.1015 21.3541 35.875V34.1667H24.7708V35.875C24.7708 36.1015 24.8608 36.3188 25.021 36.479C25.1812 36.6392 25.3984 36.7292 25.625 36.7292C25.8515 36.7292 26.0688 36.6392 26.229 36.479C26.3892 36.3188 26.4791 36.1015 26.4791 35.875V34.1667H29.8958V35.875C29.8958 36.1015 29.9858 36.3188 30.146 36.479C30.3062 36.6392 30.5234 36.7292 30.75 36.7292C30.9765 36.7292 31.1938 36.6392 31.354 36.479C31.5142 36.3188 31.6041 36.1015 31.6041 35.875V34.1667H33.3125C33.4247 34.1667 33.5358 34.1447 33.6394 34.1018C33.7431 34.0589 33.8373 33.9959 33.9166 33.9166C33.9959 33.8373 34.0588 33.7431 34.1017 33.6395C34.1446 33.5358 34.1667 33.4247 34.1666 33.3125V31.6042H35.875C36.1015 31.6042 36.3188 31.5142 36.479 31.354C36.6392 31.1938 36.7291 30.9765 36.7291 30.75C36.7291 30.5235 36.6392 30.3062 36.479 30.146C36.3188 29.9858 36.1015 29.8958 35.875 29.8958H34.1666V26.4792H35.875C36.1015 26.4792 36.3188 26.3892 36.479 26.229C36.6392 26.0688 36.7291 25.8515 36.7291 25.625C36.7291 25.3985 36.6392 25.1812 36.479 25.021C36.3188 24.8608 36.1015 24.7708 35.875 24.7708H34.1666V21.3542H35.875C36.1015 21.3542 36.3188 21.2642 36.479 21.104C36.6392 20.9438 36.7291 20.7265 36.7291 20.5C36.7291 20.2735 36.6392 20.0562 36.479 19.896C36.3188 19.7358 36.1015 19.6458 35.875 19.6458H34.1666V16.2292H35.875ZM32.4583 32.4583H8.54165V8.54168H32.4583V32.4583Z" fill="white" />
	<path d="M29.8958 10.25H11.1042C10.992 10.2499 10.8809 10.272 10.7772 10.3149C10.6736 10.3578 10.5794 10.4207 10.5001 10.5001C10.4207 10.5794 10.3578 10.6736 10.3149 10.7772C10.272 10.8809 10.2499 10.992 10.25 11.1042V29.8958C10.2499 30.008 10.272 30.1191 10.3149 30.2228C10.3578 30.3264 10.4207 30.4206 10.5001 30.4999C10.5794 30.5793 10.6736 30.6422 10.7772 30.6851C10.8809 30.728 10.992 30.7501 11.1042 30.75H29.8958C30.008 30.7501 30.1191 30.728 30.2228 30.6851C30.3264 30.6422 30.4206 30.5793 30.4999 30.4999C30.5793 30.4206 30.6422 30.3264 30.6851 30.2228C30.728 30.1191 30.7501 30.008 30.75 29.8958V11.1042C30.7501 10.992 30.728 10.8809 30.6851 10.7772C30.6422 10.6736 30.5793 10.5794 30.4999 10.5001C30.4206 10.4207 30.3264 10.3578 30.2228 10.3149C30.1191 10.272 30.008 10.2499 29.8958 10.25V10.25ZM29.0417 29.0417H11.9583V11.9583H29.0417V29.0417Z" fill="white" />
	<path d="M16.2292 25.625C16.3414 25.6251 16.4525 25.603 16.5561 25.5601C16.6598 25.5172 16.754 25.4543 16.8333 25.3749C16.9126 25.2956 16.9755 25.2014 17.0184 25.0978C17.0613 24.9941 17.0834 24.883 17.0833 24.7708V22.2083H18.7917V24.7708C18.7917 24.9974 18.8817 25.2146 19.0418 25.3748C19.202 25.535 19.4193 25.625 19.6458 25.625C19.8724 25.625 20.0896 25.535 20.2498 25.3748C20.41 25.2146 20.5 24.9974 20.5 24.7708V17.9375C20.5 17.2579 20.23 16.6061 19.7495 16.1255C19.2689 15.645 18.6171 15.375 17.9375 15.375C17.2579 15.375 16.6061 15.645 16.1255 16.1255C15.645 16.6061 15.375 17.2579 15.375 17.9375V24.7708C15.3749 24.883 15.397 24.9941 15.4399 25.0978C15.4828 25.2014 15.5457 25.2956 15.6251 25.3749C15.7044 25.4543 15.7986 25.5172 15.9022 25.5601C16.0059 25.603 16.117 25.6251 16.2292 25.625V25.625ZM17.9375 17.0833C18.1639 17.0837 18.381 17.1738 18.5411 17.3339C18.7012 17.494 18.7913 17.7111 18.7917 17.9375V20.5H17.0833V17.9375C17.0837 17.7111 17.1738 17.494 17.3339 17.3339C17.494 17.1738 17.7111 17.0837 17.9375 17.0833V17.0833ZM22.2083 24.7708C22.2083 24.883 22.2303 24.9941 22.2732 25.0978C22.3161 25.2014 22.3791 25.2956 22.4584 25.3749C22.5377 25.4543 22.6319 25.5172 22.7356 25.5601C22.8392 25.603 22.9503 25.6251 23.0625 25.625H24.7708C24.9974 25.625 25.2146 25.535 25.3748 25.3748C25.535 25.2146 25.625 24.9974 25.625 24.7708C25.625 24.5443 25.535 24.327 25.3748 24.1668C25.2146 24.0067 24.9974 23.9167 24.7708 23.9167V17.0833C24.9974 17.0833 25.2146 16.9933 25.3748 16.8332C25.535 16.673 25.625 16.4557 25.625 16.2292C25.625 16.0026 25.535 15.7854 25.3748 15.6252C25.2146 15.465 24.9974 15.375 24.7708 15.375H23.0625C22.836 15.375 22.6187 15.465 22.4585 15.6252C22.2983 15.7854 22.2083 16.0026 22.2083 16.2292C22.2083 16.4557 22.2983 16.673 22.4585 16.8332C22.6187 16.9933 22.836 17.0833 23.0625 17.0833V23.9167C22.9503 23.9166 22.8392 23.9387 22.7356 23.9816C22.6319 24.0245 22.5377 24.0874 22.4584 24.1667C22.3791 24.246 22.3161 24.3402 22.2732 24.4439C22.2303 24.5475 22.2083 24.6586 22.2083 24.7708V24.7708Z" fill="white" />
</svg>