<svg width="28" height="28" viewBox="0 0 28 28" fill="none" xmlns="http://www.w3.org/2000/svg">
<path d="M21.7778 0H20.2222C19.2889 0 18.6667 0.622222 18.6667 1.55556C18.6667 2.48889 19.2889 3.11111 20.2222 3.11111H21.7778C23.4889 3.11111 24.8889 4.51111 24.8889 6.22222V7.93333C24.8889 8.86667 25.5111 9.48889 26.4444 9.48889C27.3778 9.48889 28 8.86667 28 7.93333V6.22222C28 2.8 25.2 0 21.7778 0ZM26.4444 18.6667C25.5111 18.6667 24.8889 19.2889 24.8889 20.2222V21.7778C24.8889 23.4889 23.4889 24.8889 21.7778 24.8889H20.2222C19.2889 24.8889 18.6667 25.5111 18.6667 26.4444C18.6667 27.3778 19.2889 28 20.2222 28H21.7778C25.2 28 28 25.2 28 21.7778V20.2222C28 19.2889 27.3778 18.6667 26.4444 18.6667ZM7.77778 24.8889H6.22222C4.51111 24.8889 3.11111 23.4889 3.11111 21.7778V20.2222C3.11111 19.2889 2.48889 18.6667 1.55556 18.6667C0.622222 18.6667 0 19.2889 0 20.2222V21.7778C0 25.2 2.8 28 6.22222 28H7.77778C8.71111 28 9.33333 27.3778 9.33333 26.4444C9.33333 25.5111 8.71111 24.8889 7.77778 24.8889ZM1.55556 9.33333C2.48889 9.33333 3.11111 8.71111 3.11111 7.77778V6.22222C3.11111 4.51111 4.51111 3.11111 6.22222 3.11111H7.77778C8.71111 3.11111 9.33333 2.48889 9.33333 1.55556C9.33333 0.622222 8.71111 0 7.77778 0H6.22222C2.8 0 0 2.8 0 6.22222V7.77778C0 8.55556 0.622222 9.33333 1.55556 9.33333ZM26.4444 12.4444H1.55556C0.622222 12.4444 0 13.0667 0 14C0 14.9333 0.622222 15.5556 1.55556 15.5556H26.4444C27.3778 15.5556 28 14.9333 28 14C28 13.0667 27.3778 12.4444 26.4444 12.4444Z" fill="white"/>
</svg>
